<svg id="visual" viewBox="0 0 900 600" width="900" height="600" xmlns="http://www.w3.org/2000/svg" xmlns:xlink="http://www.w3.org/1999/xlink" version="1.1"><rect x="0" y="0" width="900" height="600" fill="#0a192f"></rect><path d="M0 326L11.5 326.8C23 327.7 46 329.3 69 324C92 318.7 115 306.3 138.2 298.7C161.3 291 184.7 288 207.8 287.2C231 286.3 254 287.7 277 294.7C300 301.7 323 314.3 346 313.3C369 312.3 392 297.7 415.2 292.5C438.3 287.3 461.7 291.7 484.8 293.3C508 295 531 294 554 294.2C577 294.3 600 295.7 623 297.7C646 299.7 669 302.3 692.2 306.5C715.3 310.7 738.7 316.3 761.8 314.5C785 312.7 808 303.3 831 304.5C854 305.7 877 317.3 888.5 323.2L900 329L900 601L888.5 601C877 601 854 601 831 601C808 601 785 601 761.8 601C738.7 601 715.3 601 692.2 601C669 601 646 601 623 601C600 601 577 601 554 601C531 601 508 601 484.8 601C461.7 601 438.3 601 415.2 601C392 601 369 601 346 601C323 601 300 601 277 601C254 601 231 601 207.8 601C184.7 601 161.3 601 138.2 601C115 601 92 601 69 601C46 601 23 601 11.5 601L0 601Z" fill="#38445d"></path><path d="M0 369L11.5 374.5C23 380 46 391 69 396.2C92 401.3 115 400.7 138.2 394.3C161.3 388 184.7 376 207.8 378.8C231 381.7 254 399.3 277 406.8C300 414.3 323 411.7 346 401C369 390.3 392 371.7 415.2 371.2C438.3 370.7 461.7 388.3 484.8 399C508 409.7 531 413.3 554 404.8C577 396.3 600 375.7 623 375.3C646 375 669 395 692.2 404C715.3 413 738.7 411 761.8 406.2C785 401.3 808 393.7 831 388.2C854 382.7 877 379.3 888.5 377.7L900 376L900 601L888.5 601C877 601 854 601 831 601C808 601 785 601 761.8 601C738.7 601 715.3 601 692.2 601C669 601 646 601 623 601C600 601 577 601 554 601C531 601 508 601 484.8 601C461.7 601 438.3 601 415.2 601C392 601 369 601 346 601C323 601 300 601 277 601C254 601 231 601 207.8 601C184.7 601 161.3 601 138.2 601C115 601 92 601 69 601C46 601 23 601 11.5 601L0 601Z" fill="#6c7a90"></path><path d="M0 477L11.5 470.5C23 464 46 451 69 446.5C92 442 115 446 138.2 450C161.3 454 184.7 458 207.8 462.2C231 466.3 254 470.7 277 469C300 467.3 323 459.7 346 452.8C369 446 392 440 415.2 445.8C438.3 451.7 461.7 469.3 484.8 471.7C508 474 531 461 554 455.3C577 449.7 600 451.3 623 452.5C646 453.7 669 454.3 692.2 457.2C715.3 460 738.7 465 761.8 465.3C785 465.7 808 461.3 831 454.7C854 448 877 439 888.5 434.5L900 430L900 601L888.5 601C877 601 854 601 831 601C808 601 785 601 761.8 601C738.7 601 715.3 601 692.2 601C669 601 646 601 623 601C600 601 577 601 554 601C531 601 508 601 484.8 601C461.7 601 438.3 601 415.2 601C392 601 369 601 346 601C323 601 300 601 277 601C254 601 231 601 207.8 601C184.7 601 161.3 601 138.2 601C115 601 92 601 69 601C46 601 23 601 11.5 601L0 601Z" fill="#a5b3c6"></path><path d="M0 508L11.5 514.5C23 521 46 534 69 534.8C92 535.7 115 524.3 138.2 523.3C161.3 522.3 184.7 531.7 207.8 536.3C231 541 254 541 277 538.7C300 536.3 323 531.7 346 527.5C369 523.3 392 519.7 415.2 514.2C438.3 508.7 461.7 501.3 484.8 498.8C508 496.3 531 498.7 554 501.5C577 504.3 600 507.7 623 518C646 528.3 669 545.7 692.2 550.3C715.3 555 738.7 547 761.8 535.8C785 524.7 808 510.3 831 506.8C854 503.3 877 510.7 888.5 514.3L900 518L900 601L888.5 601C877 601 854 601 831 601C808 601 785 601 761.8 601C738.7 601 715.3 601 692.2 601C669 601 646 601 623 601C600 601 577 601 554 601C531 601 508 601 484.8 601C461.7 601 438.3 601 415.2 601C392 601 369 601 346 601C323 601 300 601 277 601C254 601 231 601 207.8 601C184.7 601 161.3 601 138.2 601C115 601 92 601 69 601C46 601 23 601 11.5 601L0 601Z" fill="#e3f0ff"></path></svg>